<svg id="Layer_1" data-name="Layer 1" xmlns="http://www.w3.org/2000/svg" viewBox="0 0 175.9577 175.9573" width="175.9577" height="175.9573"><defs><style>.cls-1{fill:#282758;}.cls-1,.cls-2,.cls-3,.cls-4,.cls-5{fill-rule:evenodd;}.cls-2{fill:#b91818;}.cls-3{fill:#991915;}.cls-4{fill:#ce1417;}.cls-5{fill:#ad1917;}</style></defs><title>blimp-1-45</title><polygon class="cls-1" points="0 111.649 12.771 98.878 48.104 128.054 77.079 163.186 64.308 175.957 37.902 137.236 0 111.649"/><polygon class="cls-1" points="47.984 127.97 48.104 128.054 77.079 163.186 64.308 175.957 38.232 137.722 47.984 127.97"/><path class="cls-2" d="M76.63,28.4169C115.6824-10.636,140.0781-3.3723,159.6014,16.151c19.5278,19.5278,26.7917,43.9237-12.2612,82.9765S37.7079,177.1,18.18,157.5724C-1.3432,138.049,37.5767,67.47,76.63,28.4169Z" transform="translate(0.4789 -0.2775)"/><path class="cls-3" d="M92.9488,44.7361C132.0016,5.6833,149.09,5.6393,159.6014,16.151c10.5162,10.5161,10.4724,27.6044-28.58,66.6573S28.6963,168.0885,18.18,157.5724C7.6684,147.0607,53.896,83.789,92.9488,44.7361Z" transform="translate(0.4789 -0.2775)"/><path class="cls-4" d="M18.18,157.5724,159.6014,16.151c19.5278,19.5278,26.7917,43.9237-12.2612,82.9765S37.7079,177.1,18.18,157.5724Z" transform="translate(0.4789 -0.2775)"/><path class="cls-5" d="M18.18,157.5724,159.6014,16.151c10.5162,10.5161,10.4724,27.6044-28.58,66.6573S28.6963,168.0885,18.18,157.5724Z" transform="translate(0.4789 -0.2775)"/></svg>