<svg id="Layer_1" data-name="Layer 1" xmlns="http://www.w3.org/2000/svg" viewBox="0 0 200 100" width="200" height="100"><defs><style>.cls-1{fill:#282758;}.cls-1,.cls-2,.cls-3,.cls-4,.cls-5{fill-rule:evenodd;}.cls-2{fill:#b91818;}.cls-3{fill:#991915;}.cls-4{fill:#ce1417;}.cls-5{fill:#ad1917;}</style></defs><title>blimp-1-180</title><polygon class="cls-1" points="180.917 95.474 162.856 95.474 158.502 49.859 162.856 4.528 180.917 4.528 172.21 50.58 180.917 95.474"/><polygon class="cls-1" points="158.529 50.003 158.502 49.859 162.856 4.528 180.917 4.528 172.32 50.003 158.529 50.003"/><path class="cls-2" d="M67.92,101.3928C12.6906,101.3928.5764,79.0063.5764,51.3961.5764,23.78,12.6906,1.3928,67.92,1.3928S200.5763,23.78,200.5764,51.396C200.5764,79.0062,123.1487,101.3928,67.92,101.3928Z" transform="translate(-0.5764 -1.3928)"/><path class="cls-3" d="M67.92,78.3139c-55.229,0-67.3432-12.052-67.3432-26.9178,0-14.872,12.1142-26.9244,67.3432-26.9244S200.5763,36.524,200.5763,51.396C200.5763,66.2618,123.1487,78.3139,67.92,78.3139Z" transform="translate(-0.5764 -1.3928)"/><path class="cls-4" d="M200.5763,51.396h-200C.5764,23.78,12.6906,1.3928,67.92,1.3928S200.5763,23.78,200.5763,51.396Z" transform="translate(-0.5764 -1.3928)"/><path class="cls-5" d="M200.5763,51.396h-200c0-14.872,12.1142-26.9244,67.3432-26.9244S200.5763,36.524,200.5763,51.396Z" transform="translate(-0.5764 -1.3928)"/></svg>