<svg id="Layer_1" data-name="Layer 1" xmlns="http://www.w3.org/2000/svg" viewBox="0 0 200 100" width="200" height="100"><defs><style>.cls-1{fill:#282758;}.cls-1,.cls-2,.cls-3,.cls-4,.cls-5{fill-rule:evenodd;}.cls-2{fill:#007bc5;}.cls-3{fill:#0053b1;}.cls-4{fill:#0072c1;}.cls-5{fill:#104496;}</style></defs><title>blimp-2-90</title><polygon class="cls-1" points="19.083 4.526 37.144 4.526 41.498 50.141 37.144 95.472 19.083 95.472 27.79 49.42 19.083 4.526"/><polygon class="cls-1" points="41.471 49.997 41.498 50.141 37.144 95.472 19.083 95.472 27.68 49.997 41.471 49.997"/><path class="cls-2" d="M132.6567,0C187.8858,0,200,22.3865,200,49.9967,200,77.6132,187.8858,100,132.6567,100S0,77.6132,0,49.9967C0,22.3865,77.4277,0,132.6567,0Z" transform="translate(0 0)"/><path class="cls-3" d="M132.6567,23.0789C187.8858,23.0789,200,35.1309,200,49.9967c0,14.8721-12.1142,26.9244-67.3433,26.9244S0,64.8688,0,49.9967C0,35.1309,77.4277,23.0789,132.6567,23.0789Z" transform="translate(0 0)"/><path class="cls-4" d="M0,49.9967H200C200,77.6132,187.8858,100,132.6567,100S0,77.6132,0,49.9967Z" transform="translate(0 0)"/><path class="cls-5" d="M0,49.9967H200c0,14.8721-12.1142,26.9244-67.3433,26.9244S0,64.8688,0,49.9967Z" transform="translate(0 0)"/></svg>