<svg id="Layer_1" data-name="Layer 1" xmlns="http://www.w3.org/2000/svg" viewBox="0 0 175.9574 175.9578" width="175.9574" height="175.9578"><defs><style>.cls-1{fill:#282758;}.cls-1,.cls-2,.cls-3,.cls-4,.cls-5{fill-rule:evenodd;}.cls-2{fill:#007bc5;}.cls-3{fill:#0053b1;}.cls-4{fill:#0072c1;}.cls-5{fill:#104496;}</style></defs><title>blimp-2-135</title><polygon class="cls-1" points="64.308 0 77.079 12.771 47.904 48.104 12.771 77.079 0 64.308 38.721 37.902 64.308 0"/><polygon class="cls-1" points="47.987 47.984 47.904 48.104 12.771 77.079 0 64.308 38.235 38.232 47.987 47.984"/><path class="cls-2" d="M158.4471,87.7365c39.0529,39.0528,31.7893,63.4485,12.2659,82.9719-19.5278,19.5277-43.9237,26.7916-82.9765-12.2613S9.7639,48.8148,29.2917,29.287C48.815,9.7636,119.3943,48.6836,158.4471,87.7365Z" transform="translate(-10.6292 -10.628)"/><path class="cls-3" d="M142.1279,104.0557c39.0528,39.0529,39.0968,56.1409,28.5851,66.6527-10.5161,10.5161-27.6044,10.4723-66.6573-28.58S18.7755,39.8031,29.2917,29.287C39.8034,18.7753,103.0751,65.0029,142.1279,104.0557Z" transform="translate(-10.6292 -10.628)"/><path class="cls-4" d="M29.2917,29.287,170.713,170.7084c-19.5278,19.5277-43.9237,26.7916-82.9765-12.2613S9.7639,48.8148,29.2917,29.287Z" transform="translate(-10.6292 -10.628)"/><path class="cls-5" d="M29.2917,29.287,170.713,170.7084c-10.5161,10.5161-27.6044,10.4723-66.6573-28.58S18.7755,39.8031,29.2917,29.287Z" transform="translate(-10.6292 -10.628)"/></svg>