<svg id="Layer_1" data-name="Layer 1" xmlns="http://www.w3.org/2000/svg" viewBox="0 0 174 174" width="174" height="174"><defs><style>.cls-1{fill:#00419c;}.cls-1,.cls-2,.cls-5,.cls-6{fill-rule:evenodd;}.cls-2{fill:#4a72b2;}.cls-3,.cls-5{fill:#293c4d;}.cls-4,.cls-6{fill:#1b2a3a;}</style></defs><title>plane-2-180</title><path class="cls-1" d="M59.4228,4.2447h0V86.9976H88.3639C92.21,59.8294,83.1282,26.2669,77.48,14.042,72.0262,2.24,62.8253-5.0963,59.4228,4.2447Z" transform="translate(0 0)"/><path class="cls-2" d="M59.4227,169.7554h0V86.9976H88.3639c3.846,27.1684-5.2357,60.7309-10.884,72.9558C72.0262,171.7607,62.8253,179.0964,59.4227,169.7554Z" transform="translate(0 0)"/><path class="cls-1" d="M145.816,86.9976h9.88c1.3124-7.9765-1.7866-17.837-3.7161-21.4249-1.3668-2.5489-3.4257-4.3841-4.8806-4.0928-1.4574-.2913-3.5139,1.5489-4.8807,4.0928-1.9268,3.5879-5.0282,13.4484-3.7161,21.4249Z" transform="translate(0 0)"/><path class="cls-2" d="M145.816,86.9976h9.88c1.3124,7.9817-1.7866,17.8372-3.7161,21.43-1.3669,2.5442-3.4233,4.3794-4.8807,4.0928-1.4573.2913-3.5138-1.5486-4.8806-4.0928-1.9268-3.5926-5.0282-13.4481-3.7161-21.43Z" transform="translate(0 0)"/><rect class="cls-3" x="3.257" y="86.6821" width="7.1575" height="1.9128"/><rect class="cls-4" x="3.257" y="84.7644" width="7.1575" height="1.9178"/><path class="cls-5" d="M1.8929,88.4348V102.791a1.4911,1.4911,0,0,0,1.5327,1.437h.0027a1.4909,1.4909,0,0,0,1.5325-1.437V88.4348a1.4909,1.4909,0,0,0-1.5325-1.4373H3.4256A1.4912,1.4912,0,0,0,1.8929,88.4348Z" transform="translate(0 0)"/><path class="cls-6" d="M1.8929,70.8889V85.2451a1.4942,1.4942,0,0,0,1.5327,1.437h.0027a1.494,1.494,0,0,0,1.5325-1.437V70.8889a1.4907,1.4907,0,0,0-1.5325-1.437H3.4257A1.491,1.491,0,0,0,1.8929,70.8889Z" transform="translate(0 0)"/><path class="cls-2" d="M10.4145,86.9975H174c0,3.8646-65.7764,8.2971-72.5916,8.9332-34.4522,3.2285-66.1163,1.9128-83.4965-1.9128C13.8975,93.1343,10.4145,90.8621,10.4145,86.9975Z" transform="translate(0 0)"/><path class="cls-1" d="M10.4145,86.9975H174c0-3.86-65.7764-8.2922-72.5916-8.9281-34.4521-3.2287-66.1163-1.9178-83.4965,1.9128C13.8975,80.8659,10.4145,83.1379,10.4145,86.9975Z" transform="translate(0 0)"/><path class="cls-5" d="M6.0735,81.735C2.7177,81.735,0,83.9488,0,86.6821c0,2.7286,2.7177,4.9424,6.0735,4.9424Z" transform="translate(0 0)"/><path class="cls-6" d="M6.0735,86.6821H0c0-2.7333,2.7177-4.9471,6.0735-4.9471Z" transform="translate(0 0)"/><path class="cls-5" d="M62.9652,90.5079H84.614a3.646,3.646,0,0,0,3.75-3.51h0a3.6494,3.6494,0,0,0-3.75-3.51H62.9652a3.6493,3.6493,0,0,0-3.75,3.51h0A3.646,3.646,0,0,0,62.9652,90.5079Z" transform="translate(0 0)"/><path class="cls-6" d="M62.9652,90.5079H84.614a3.646,3.646,0,0,0,3.75-3.51H59.2154A3.646,3.646,0,0,0,62.9652,90.5079Z" transform="translate(0 0)"/><path class="cls-5" d="M135.658,88.77h10.9281a1.8389,1.8389,0,0,0,1.8907-1.7721h0a1.8381,1.8381,0,0,0-1.8907-1.7671H135.658a1.8378,1.8378,0,0,0-1.89,1.7671h0A1.8387,1.8387,0,0,0,135.658,88.77Z" transform="translate(0 0)"/><path class="cls-6" d="M135.658,88.77h10.9281a1.8389,1.8389,0,0,0,1.8907-1.7721H133.7675A1.84,1.84,0,0,0,135.658,88.77Z" transform="translate(0 0)"/></svg>