<svg id="Layer_1" data-name="Layer 1" xmlns="http://www.w3.org/2000/svg" viewBox="0 0 174 174" width="174" height="174"><defs><style>.cls-1{fill:#e73235;}.cls-1,.cls-2,.cls-5,.cls-6,.cls-7,.cls-8{fill-rule:evenodd;}.cls-2{fill:#e20d1a;}.cls-3,.cls-5{fill:#293c4d;}.cls-4,.cls-6{fill:#1b2a3a;}.cls-7{fill:#283c4d;}.cls-8{fill:#192a3a;}</style></defs><title>plane-1-135</title><path class="cls-1" d="M172.9209,145.9847h0L100.4686,73.534,75.13,98.8722c20.4192,27.1531,57.7553,48.5862,73.4037,54.344C163.6417,158.7745,178.12,157.1417,172.9209,145.9847Z"/><path class="cls-2" d="M28.0119,1.079h0l72.4567,72.455L75.13,98.8722C47.9759,78.4533,26.5423,41.118,20.7844,25.47,15.2216,10.3578,16.8547-4.12,28.0119,1.079Z"/><path class="cls-1" d="M24.8291,149.1718,22.5813,151.42l-6.4028,6.4026c5.8346,8.1325,17.181,14.0522,22.0116,15.5041,3.4283,1.0349,6.8377.8392,7.8565-.69,1.531-1.0209,1.72-4.4324.69-7.8563-1.4543-4.8282-7.3721-16.1764-15.5045-22.0111Z"/><path class="cls-2" d="M24.8291,149.1718h0l-8.6506,8.65C8.0413,151.9832,2.1258,140.6414.67,135.8068c-1.0308-3.4241-.8371-6.8313.69-7.8563,1.0209-1.531,4.4323-1.7205,7.8564-.69,4.8325,1.4584,16.1766,7.3717,22.016,15.5085Z"/><rect class="cls-3" x="141.5176" y="25.7485" width="8.8621" height="2.3683" transform="translate(23.7041 111.0911) rotate(-45.0007)"/><rect class="cls-4" x="143.1945" y="27.4222" width="8.8621" height="2.3745" transform="translate(23.0096 112.768) rotate(-45.0007)"/><path class="cls-5" d="M149.5792,21.9079,137.01,9.339a1.8465,1.8465,0,0,0-2.6.0839l-.0023.0023a1.846,1.846,0,0,0-.0836,2.6l12.5692,12.569a1.8461,1.8461,0,0,0,2.6-.0834l.0023-.0024A1.8463,1.8463,0,0,0,149.5792,21.9079Z"/><path class="cls-6" d="M164.941,37.27,152.3718,24.7006a1.85,1.85,0,0,0-2.6.0838l-.0023.0023a1.85,1.85,0,0,0-.0836,2.6L162.255,39.9555a1.8458,1.8458,0,0,0,2.6-.0836l.0024-.0024A1.8459,1.8459,0,0,0,164.941,37.27Z"/><path class="cls-2" d="M143.3766,30.627h0L.1533,173.8471h0c-3.3836-3.3834,50.3245-64.8518,55.7344-71.3755,27.3372-32.99,56.2119-59.56,74.7781-71.427C134.9542,28.3036,139.9931,27.2435,143.3766,30.627Z"/><path class="cls-1" d="M143.3766,30.627h0L.1533,173.8471h0c3.3792,3.3792,64.8489-50.3277,71.3725-55.7378,32.9906-27.3363,59.5656-56.2062,71.4287-74.7764C145.6955,39.0447,146.7558,34.0061,143.3766,30.627Z"/><path class="cls-5" d="M151.7848,31.4338c2.9381-2.938,3.3792-7.2555.9861-9.6486-2.3889-2.3889-6.7066-1.9477-9.6447.99Z"/><path class="cls-6" d="M147.4534,27.1026l5.3175-5.3174c2.3931,2.3931,1.952,6.7106-.9861,9.6486Z"/><path class="cls-7" d="M94.2936,73.5622,75.34,92.5158a4.5143,4.5143,0,0,0-.21,6.3564h0a4.5186,4.5186,0,0,0,6.3563-.21L100.44,79.7086a4.5183,4.5183,0,0,0,.21-6.3561h0A4.5146,4.5146,0,0,0,94.2936,73.5622Z"/><path class="cls-8" d="M94.2936,73.5622,75.34,92.5158a4.5143,4.5143,0,0,0-.21,6.3564l25.52-25.52A4.5146,4.5146,0,0,0,94.2936,73.5622Z"/><path class="cls-7" d="M32.1712,138.727l-9.5678,9.5676a2.2766,2.2766,0,0,0-.1039,3.2068h0a2.2759,2.2759,0,0,0,3.2025-.1082l9.5678-9.5676a2.2755,2.2755,0,0,0,.108-3.2023h0A2.2765,2.2765,0,0,0,32.1712,138.727Z"/><path class="cls-5" d="M32.1712,138.727l-9.5678,9.5676a2.2766,2.2766,0,0,0-.1039,3.2068l12.8783-12.8781A2.2787,2.2787,0,0,0,32.1712,138.727Z"/></svg>