<svg id="Layer_1" data-name="Layer 1" xmlns="http://www.w3.org/2000/svg" viewBox="0 0 174 174" width="174" height="174"><defs><style>.cls-1{fill:#e73235;}.cls-1,.cls-2,.cls-5,.cls-6,.cls-7,.cls-8{fill-rule:evenodd;}.cls-2{fill:#e20d1a;}.cls-3,.cls-5{fill:#293c4d;}.cls-4,.cls-6{fill:#1b2a3a;}.cls-7{fill:#283c4d;}.cls-8{fill:#192a3a;}</style></defs><title>plane-1-0</title><path class="cls-1" d="M169.7553,59.4227H87.0024V88.3639c27.1682,3.846,60.7307-5.2357,72.9556-10.884C171.76,72.0262,179.0963,62.8253,169.7553,59.4227Z" transform="translate(0)"/><path class="cls-2" d="M4.2446,59.4227H87.0024V88.3639C59.834,92.21,26.2715,83.1282,14.0466,77.48,2.2393,72.0262-5.0964,62.8253,4.2446,59.4227Z" transform="translate(0)"/><path class="cls-1" d="M87.0024,145.816v9.88c7.9765,1.3124,17.837-1.7866,21.4249-3.7161,2.5489-1.3668,4.3841-3.4257,4.0928-4.8807.2913-1.4573-1.5489-3.5138-4.0928-4.8806-3.5879-1.9268-13.4484-5.0282-21.4249-3.7161Z" transform="translate(0)"/><path class="cls-2" d="M87.0024,145.816h0v9.88c-7.9817,1.3124-17.8372-1.7866-21.43-3.7161-2.5442-1.3668-4.3794-3.4233-4.0928-4.8807-.2913-1.4573,1.5486-3.5138,4.0928-4.8806,3.5926-1.9268,13.4481-5.0282,21.43-3.7161Z" transform="translate(0)"/><rect class="cls-3" x="85.4051" y="3.257" width="1.9128" height="7.1575"/><rect class="cls-4" x="87.3179" y="3.257" width="1.9178" height="7.1575"/><path class="cls-5" d="M85.5652,1.8929H71.209a1.4911,1.4911,0,0,0-1.437,1.5327v.0027a1.4909,1.4909,0,0,0,1.437,1.5325H85.5652a1.4909,1.4909,0,0,0,1.4372-1.5325V3.4256A1.4911,1.4911,0,0,0,85.5652,1.8929Z" transform="translate(0)"/><path class="cls-6" d="M103.1111,1.8929H88.7549a1.4942,1.4942,0,0,0-1.437,1.5327v.0027a1.494,1.494,0,0,0,1.437,1.5325h14.3562a1.4907,1.4907,0,0,0,1.437-1.5325V3.4256A1.491,1.491,0,0,0,103.1111,1.8929Z" transform="translate(0)"/><path class="cls-2" d="M87.0024,10.4145h0V174h0c-3.8645,0-8.2971-65.7764-8.9332-72.5916-3.2285-34.4521-1.9128-66.1163,1.9128-83.4965C80.8656,13.8975,83.1379,10.4145,87.0024,10.4145Z" transform="translate(0)"/><path class="cls-1" d="M87.0024,10.4145h0V174h0c3.86,0,8.2922-65.7764,8.9281-72.5916,3.2287-34.4521,1.9177-66.1163-1.9128-83.4965C93.134,13.8975,90.8621,10.4145,87.0024,10.4145Z" transform="translate(0)"/><path class="cls-5" d="M92.265,6.0735C92.265,2.7177,90.0512,0,87.3179,0c-2.7286,0-4.9424,2.7177-4.9424,6.0735Z" transform="translate(0)"/><path class="cls-6" d="M87.3179,6.0735V0c2.7333,0,4.9471,2.7177,4.9471,6.0735Z" transform="translate(0)"/><path class="cls-7" d="M83.4921,62.9652V84.614a3.646,3.646,0,0,0,3.51,3.75h0a3.6494,3.6494,0,0,0,3.51-3.75V62.9652a3.6493,3.6493,0,0,0-3.51-3.75h0A3.646,3.646,0,0,0,83.4921,62.9652Z" transform="translate(0)"/><path class="cls-8" d="M83.4921,62.9652V84.614a3.646,3.646,0,0,0,3.51,3.75V59.2154A3.646,3.646,0,0,0,83.4921,62.9652Z" transform="translate(0)"/><path class="cls-7" d="M85.23,135.658v10.9281a1.8389,1.8389,0,0,0,1.7721,1.8907h0a1.8381,1.8381,0,0,0,1.7672-1.8907V135.658a1.8379,1.8379,0,0,0-1.7672-1.89h0A1.8387,1.8387,0,0,0,85.23,135.658Z" transform="translate(0)"/><path class="cls-5" d="M85.23,135.658v10.9281a1.8389,1.8389,0,0,0,1.7721,1.8907V133.7675A1.84,1.84,0,0,0,85.23,135.658Z" transform="translate(0)"/></svg>