<svg id="Layer_1" data-name="Layer 1" xmlns="http://www.w3.org/2000/svg" viewBox="0 0 174 174" width="174" height="174"><defs><style>.cls-1{fill:#e73235;}.cls-1,.cls-2,.cls-5,.cls-6,.cls-7,.cls-8{fill-rule:evenodd;}.cls-2{fill:#e20d1a;}.cls-3,.cls-5{fill:#293c4d;}.cls-4,.cls-6{fill:#1b2a3a;}.cls-7{fill:#283c4d;}.cls-8{fill:#192a3a;}</style></defs><title>plane-1-45</title><path class="cls-1" d="M145.9847,1.0791h0L73.534,73.5314,98.8722,98.87c27.1531-20.4192,48.5862-57.7553,54.344-73.4037C158.7745,10.3583,157.1417-4.12,145.9847,1.0791Z" transform="translate(0 0)"/><path class="cls-2" d="M1.079,145.9881h0L73.534,73.5314,98.8722,98.87C78.4533,126.0241,41.118,147.4577,25.47,153.2156,10.3578,158.7784-4.12,157.1453,1.079,145.9881Z" transform="translate(0 0)"/><path class="cls-1" d="M149.1718,149.1709l2.2478,2.2478,6.4026,6.4028c8.1325-5.8346,14.0522-17.181,15.5041-22.0116,1.0349-3.4283.8392-6.8377-.69-7.8565-1.0209-1.531-4.4324-1.72-7.8563-.69-4.8282,1.4543-16.1764,7.3721-22.0111,15.5045Z" transform="translate(0 0)"/><path class="cls-2" d="M149.1718,149.1709h0l8.65,8.6506c-5.839,8.1372-17.1808,14.0527-22.0154,15.5088-3.4241,1.0308-6.8313.8371-7.8563-.69-1.531-1.0209-1.7205-4.4323-.69-7.8564,1.4584-4.8325,7.3717-16.1766,15.5085-22.016Z" transform="translate(0 0)"/><rect class="cls-3" x="25.7485" y="23.6202" width="2.3683" height="8.8621" transform="translate(-11.9469 27.2607) rotate(-45.0007)"/><rect class="cls-4" x="27.4222" y="21.9433" width="2.3745" height="8.8621" transform="translate(-10.27 27.9553) rotate(-45.0007)"/><path class="cls-5" d="M21.9079,24.4208,9.339,36.99a1.8465,1.8465,0,0,0,.0839,2.6l.0023.0023a1.846,1.846,0,0,0,2.6.0836L24.594,27.1069a1.8461,1.8461,0,0,0-.0834-2.6l-.0024-.0023A1.8463,1.8463,0,0,0,21.9079,24.4208Z" transform="translate(0 0)"/><path class="cls-6" d="M37.27,9.059,24.7006,21.6282a1.85,1.85,0,0,0,.0838,2.6l.0023.0023a1.85,1.85,0,0,0,2.6.0836L39.9555,11.745a1.8458,1.8458,0,0,0-.0836-2.6L39.87,9.1428A1.8459,1.8459,0,0,0,37.27,9.059Z" transform="translate(0 0)"/><path class="cls-2" d="M30.627,30.6234h0l143.22,143.2233h0c-3.3834,3.3836-64.8518-50.3245-71.3755-55.7344C69.482,90.7751,42.9118,61.9,31.0446,43.3342,28.3036,39.0458,27.2435,34.0069,30.627,30.6234Z" transform="translate(0 0)"/><path class="cls-1" d="M30.627,30.6234h0l143.22,143.2233h0c3.3792-3.3792-50.3277-64.8489-55.7378-71.3725C90.773,69.4836,61.9031,42.9086,43.3329,31.0455,39.0447,28.3045,34.0061,27.2442,30.627,30.6234Z" transform="translate(0 0)"/><path class="cls-5" d="M31.4338,22.2152c-2.938-2.9381-7.2555-3.3792-9.6486-.9861-2.3889,2.3889-1.9477,6.7066.99,9.6447Z" transform="translate(0 0)"/><path class="cls-6" d="M27.1026,26.5466l-5.3174-5.3175c2.3931-2.3931,6.7106-1.952,9.6486.9861Z" transform="translate(0 0)"/><path class="cls-7" d="M73.5622,79.7064,92.5158,98.66a4.5143,4.5143,0,0,0,6.3564.21h0a4.5186,4.5186,0,0,0-.21-6.3563L79.7086,73.56a4.5183,4.5183,0,0,0-6.3561-.21h0A4.5146,4.5146,0,0,0,73.5622,79.7064Z" transform="translate(0 0)"/><path class="cls-8" d="M73.5622,79.7064,92.5158,98.66a4.5143,4.5143,0,0,0,6.3564.21l-25.52-25.52A4.5146,4.5146,0,0,0,73.5622,79.7064Z" transform="translate(0 0)"/><path class="cls-7" d="M138.727,141.8288l9.5676,9.5678a2.2766,2.2766,0,0,0,3.2068.1039h0a2.2759,2.2759,0,0,0-.1082-3.2025l-9.5676-9.5678a2.2755,2.2755,0,0,0-3.2023-.108h0A2.2765,2.2765,0,0,0,138.727,141.8288Z" transform="translate(0 0)"/><path class="cls-5" d="M138.727,141.8288l9.5676,9.5678a2.2766,2.2766,0,0,0,3.2068.1039l-12.8781-12.8783A2.2787,2.2787,0,0,0,138.727,141.8288Z" transform="translate(0 0)"/></svg>