<svg id="Layer_1" data-name="Layer 1" xmlns="http://www.w3.org/2000/svg" viewBox="0 0 174 174" width="174" height="174"><defs><style>.cls-1{fill:#00419c;}.cls-1,.cls-2,.cls-5,.cls-6{fill-rule:evenodd;}.cls-2{fill:#4a72b2;}.cls-3,.cls-5{fill:#293c4d;}.cls-4,.cls-6{fill:#1b2a3a;}</style></defs><title>plane-2-135</title><path class="cls-1" d="M1.0791,28.0153h0l72.4523,72.4506L98.87,75.1278C78.4509,47.9747,41.1148,26.5416,25.4664,20.7837,10.3583,15.2255-4.12,16.8583,1.0791,28.0153Z" transform="translate(0 0)"/><path class="cls-2" d="M145.988,172.921h0L73.5314,100.4659,98.87,75.1278c27.154,20.4189,48.5876,57.7542,54.3455,73.4023C158.7783,163.6422,157.1453,178.12,145.988,172.921Z" transform="translate(0 0)"/><path class="cls-1" d="M149.1709,24.8282l2.2478-2.2478,6.4028-6.4026C151.9869,8.0453,140.6405,2.1256,135.81.6737c-3.4283-1.0349-6.8377-.8392-7.8565.69-1.531,1.0209-1.72,4.4324-.69,7.8563,1.4543,4.8282,7.3721,16.1764,15.5045,22.0111Z" transform="translate(0 0)"/><path class="cls-2" d="M149.1709,24.8282h0l8.6506-8.65c8.1372,5.839,14.0527,17.1808,15.5088,22.0154,1.0308,3.4241.8371,6.8313-.69,7.8563-1.0209,1.531-4.4323,1.7205-7.8564.69-4.8325-1.4584-16.1766-7.3717-22.016-15.5085Z" transform="translate(0 0)"/><rect class="cls-3" x="23.6202" y="145.8832" width="8.8621" height="2.3683" transform="translate(-95.7772 62.9117) rotate(-45.0007)"/><rect class="cls-4" x="21.9433" y="144.2033" width="8.8621" height="2.3745" transform="translate(-95.0827 61.2348) rotate(-45.0007)"/><path class="cls-5" d="M24.4208,152.092,36.99,164.6609a1.8462,1.8462,0,0,0,2.6-.0838l.0024-.0023a1.8461,1.8461,0,0,0,.0836-2.6L27.1069,149.406a1.8461,1.8461,0,0,0-2.6.0834l-.0023.0023A1.8463,1.8463,0,0,0,24.4208,152.092Z" transform="translate(0 0)"/><path class="cls-6" d="M9.059,136.7305l12.5692,12.5689a1.85,1.85,0,0,0,2.6-.0838l.0023-.0023a1.85,1.85,0,0,0,.0836-2.6L11.745,134.0445a1.8459,1.8459,0,0,0-2.6.0836l-.0023.0023A1.8461,1.8461,0,0,0,9.059,136.7305Z" transform="translate(0 0)"/><path class="cls-2" d="M30.6234,143.373h0L173.8467.1529h0c3.3836,3.3834-50.3245,64.8518-55.7345,71.3755-27.3371,32.99-56.2118,59.56-74.7781,71.427C39.0458,145.6964,34.0069,146.7564,30.6234,143.373Z" transform="translate(0 0)"/><path class="cls-1" d="M30.6234,143.373h0L173.8467.1529h0c-3.3792-3.3792-64.8489,50.3277-71.3725,55.7377C69.4836,83.227,42.9086,112.0969,31.0455,130.6671,28.3045,134.9553,27.2442,139.9938,30.6234,143.373Z" transform="translate(0 0)"/><path class="cls-5" d="M22.2152,142.5661c-2.9381,2.9381-3.3793,7.2556-.9862,9.6487,2.389,2.3889,6.7066,1.9477,9.6447-.99Z" transform="translate(0 0)"/><path class="cls-6" d="M26.5465,146.8974l-5.3175,5.3174c-2.3931-2.3931-1.9519-6.7106.9862-9.6487Z" transform="translate(0 0)"/><path class="cls-5" d="M79.7063,100.4378,98.66,81.4842a4.5143,4.5143,0,0,0,.21-6.3564h0a4.5185,4.5185,0,0,0-6.3563.21L73.56,94.2913a4.5184,4.5184,0,0,0-.21,6.3562h0A4.5145,4.5145,0,0,0,79.7063,100.4378Z" transform="translate(0 0)"/><path class="cls-6" d="M79.7063,100.4378,98.66,81.4842a4.5143,4.5143,0,0,0,.21-6.3564l-25.52,25.52A4.5145,4.5145,0,0,0,79.7063,100.4378Z" transform="translate(0 0)"/><path class="cls-5" d="M141.8288,35.273l9.5678-9.5676a2.2766,2.2766,0,0,0,.1039-3.2068h0a2.2759,2.2759,0,0,0-3.2025.1082L138.73,32.1744a2.2755,2.2755,0,0,0-.108,3.2023h0A2.2765,2.2765,0,0,0,141.8288,35.273Z" transform="translate(0 0)"/><path class="cls-6" d="M141.8288,35.273l9.5678-9.5676a2.2766,2.2766,0,0,0,.1039-3.2068L138.6222,35.3767A2.2787,2.2787,0,0,0,141.8288,35.273Z" transform="translate(0 0)"/></svg>