<svg id="Layer_1" data-name="Layer 1" xmlns="http://www.w3.org/2000/svg" viewBox="0 0 175.9578 175.9574" width="175.9578" height="175.9574"><defs><style>.cls-1{fill:#282758;}.cls-1,.cls-2,.cls-3,.cls-4,.cls-5{fill-rule:evenodd;}.cls-2{fill:#007bc5;}.cls-3{fill:#0053b1;}.cls-4{fill:#0072c1;}.cls-5{fill:#104496;}</style></defs><title>blimp-2-45</title><polygon class="cls-1" points="175.958 64.308 163.187 77.079 127.854 47.904 98.878 12.771 111.65 0 138.056 38.721 175.958 64.308"/><polygon class="cls-1" points="127.974 47.987 127.854 47.904 98.878 12.771 111.65 0 137.726 38.235 127.974 47.987"/><path class="cls-2" d="M109.4783,158.4462C70.4254,197.499,46.03,190.2354,26.5064,170.712,6.9786,151.1843-.2852,126.7883,38.7676,87.7355S148.4,9.7629,167.9278,29.2907C187.4511,48.8141,148.5311,119.3934,109.4783,158.4462Z" transform="translate(-10.629 -10.6282)"/><path class="cls-3" d="M93.159,142.1269C54.1062,181.18,37.0181,181.2238,26.5064,170.712,15.99,160.1959,16.034,143.1076,55.0869,104.0547s102.3247-85.28,112.8409-74.764C178.44,39.8024,132.2119,103.0741,93.159,142.1269Z" transform="translate(-10.629 -10.6282)"/><path class="cls-4" d="M167.9278,29.2907,26.5064,170.712C6.9786,151.1843-.2852,126.7883,38.7676,87.7355S148.4,9.7629,167.9278,29.2907Z" transform="translate(-10.629 -10.6282)"/><path class="cls-5" d="M167.9278,29.2907,26.5064,170.712C15.99,160.1959,16.034,143.1076,55.0869,104.0547S157.4116,18.7746,167.9278,29.2907Z" transform="translate(-10.629 -10.6282)"/></svg>