<svg id="Layer_1" data-name="Layer 1" xmlns="http://www.w3.org/2000/svg" viewBox="0 0 200 100" width="200" height="100"><defs><style>.cls-1{fill:#282758;}.cls-1,.cls-2,.cls-3,.cls-4,.cls-5{fill-rule:evenodd;}.cls-2{fill:#007bc5;}.cls-3{fill:#0053b1;}.cls-4{fill:#0072c1;}.cls-5{fill:#104496;}</style></defs><title>blimp-2-180</title><polygon class="cls-1" points="180.918 95.474 162.856 95.474 158.502 49.859 162.856 4.528 180.917 4.528 172.21 50.58 180.918 95.474"/><polygon class="cls-1" points="158.529 50.003 158.502 49.859 162.856 4.528 180.917 4.528 172.32 50.003 158.529 50.003"/><path class="cls-2" d="M67.3433,100C12.1142,100,0,77.6135,0,50.0033,0,22.3869,12.1142,0,67.3433,0S200,22.3868,200,50.0032C200,77.6134,122.5723,100,67.3433,100Z" transform="translate(0 0)"/><path class="cls-3" d="M67.3433,76.9211C12.1142,76.9211,0,64.8691,0,50.0033,0,35.1312,12.1142,23.0789,67.3433,23.0789S200,35.1312,200,50.0032C200,64.8691,122.5723,76.9211,67.3433,76.9211Z" transform="translate(0 0)"/><path class="cls-4" d="M200,50.0032H0C0,22.3869,12.1142,0,67.3433,0S200,22.3868,200,50.0032Z" transform="translate(0 0)"/><path class="cls-5" d="M200,50.0032H0C0,35.1312,12.1142,23.0789,67.3433,23.0789S200,35.1312,200,50.0032Z" transform="translate(0 0)"/></svg>