<svg id="Layer_1" data-name="Layer 1" xmlns="http://www.w3.org/2000/svg" viewBox="0 0 100 200" width="100" height="200"><defs><style>.cls-1{fill:#282758;}.cls-1,.cls-2,.cls-3,.cls-4,.cls-5{fill-rule:evenodd;}.cls-2{fill:#007bc5;}.cls-3{fill:#0053b1;}.cls-4{fill:#0072c1;}.cls-5{fill:#104496;}</style></defs><title>blimp-2-0</title><polygon class="cls-1" points="95.474 19.082 95.474 37.144 49.859 41.498 4.528 37.144 4.528 19.083 50.58 27.79 95.474 19.082"/><polygon class="cls-1" points="50.003 41.471 49.859 41.498 4.528 37.144 4.528 19.083 50.003 27.68 50.003 41.471"/><path class="cls-2" d="M100,132.6567C100,187.8858,77.6135,200,50.0033,200,22.3869,200,0,187.8858,0,132.6567S22.3868,0,50.0032,0C77.6135,0,100,77.4277,100,132.6567Z" transform="translate(0 0)"/><path class="cls-3" d="M76.9211,132.6567C76.9211,187.8858,64.8691,200,50.0033,200c-14.872,0-26.9244-12.1142-26.9244-67.3433S35.1312,0,50.0032,0C64.8691,0,76.9211,77.4277,76.9211,132.6567Z" transform="translate(0 0)"/><path class="cls-4" d="M50.0032,0V200C22.3869,200,0,187.8858,0,132.6567S22.3868,0,50.0032,0Z" transform="translate(0 0)"/><path class="cls-5" d="M50.0032,0V200c-14.872,0-26.9244-12.1142-26.9244-67.3433S35.1312,0,50.0032,0Z" transform="translate(0 0)"/></svg>