<svg id="Layer_1" data-name="Layer 1" xmlns="http://www.w3.org/2000/svg" viewBox="0 0 200 100" width="200" height="100"><defs><style>.cls-1{fill:#282758;}.cls-1,.cls-2,.cls-3,.cls-4,.cls-5{fill-rule:evenodd;}.cls-2{fill:#b91818;}.cls-3{fill:#991915;}.cls-4{fill:#ce1417;}.cls-5{fill:#ad1917;}</style></defs><title>blimp-1-90</title><polygon class="cls-1" points="19.083 4.526 37.144 4.526 41.498 50.141 37.144 95.472 19.083 95.472 27.79 49.42 19.083 4.526"/><polygon class="cls-1" points="41.471 49.997 41.498 50.141 37.144 95.472 19.083 95.472 27.68 49.997 41.471 49.997"/><path class="cls-2" d="M133.2331,1.3928c55.229,0,67.3432,22.3865,67.3432,49.9967,0,27.6164-12.1141,50.0033-67.3432,50.0033S.5764,79.006.5764,51.39C.5764,23.7794,78.004,1.3928,133.2331,1.3928Z" transform="translate(-0.5764 -1.3928)"/><path class="cls-3" d="M133.2331,24.4717c55.229,0,67.3433,12.052,67.3433,26.9178,0,14.872-12.1142,26.9244-67.3433,26.9244S.5764,66.2616.5764,51.39C.5764,36.5238,78.0041,24.4717,133.2331,24.4717Z" transform="translate(-0.5764 -1.3928)"/><path class="cls-4" d="M.5764,51.39h200c0,27.6164-12.1142,50.0033-67.3433,50.0033S.5764,79.006.5764,51.39Z" transform="translate(-0.5764 -1.3928)"/><path class="cls-5" d="M.5764,51.39h200c0,14.872-12.1142,26.9244-67.3433,26.9244S.5764,66.2616.5764,51.39Z" transform="translate(-0.5764 -1.3928)"/></svg>