<svg id="Layer_1" data-name="Layer 1" xmlns="http://www.w3.org/2000/svg" viewBox="0 0 175.9573 175.9577" width="175.9573" height="175.9577"><defs><style>.cls-1{fill:#282758;}.cls-1,.cls-2,.cls-3,.cls-4,.cls-5{fill-rule:evenodd;}.cls-2{fill:#b91818;}.cls-3{fill:#991915;}.cls-4{fill:#ce1417;}.cls-5{fill:#ad1917;}</style></defs><title>blimp-1-135</title><polygon class="cls-1" points="111.649 175.958 98.878 163.187 128.054 127.854 163.186 98.878 175.957 111.649 137.236 138.056 111.649 175.958"/><polygon class="cls-1" points="127.97 127.974 128.054 127.854 163.186 98.878 175.957 111.649 137.722 137.726 127.97 127.974"/><path class="cls-2" d="M28.6954,98.8493C-10.3574,59.7965-3.0938,35.4008,16.43,15.8775,35.9573-3.65,60.3532-10.9142,99.406,28.1387s77.9727,109.6323,58.4449,129.16C138.3275,176.8221,67.7482,137.9022,28.6954,98.8493Z" transform="translate(-0.556 0)"/><path class="cls-3" d="M45.0146,82.53C5.9618,43.4773,5.9178,26.3892,16.43,15.8774,26.9456,5.3613,44.034,5.4051,83.0868,44.4579s85.28,102.3247,74.7641,112.8408C147.3392,167.8105,84.0675,121.5829,45.0146,82.53Z" transform="translate(-0.556 0)"/><path class="cls-4" d="M157.8509,157.2987,16.43,15.8774C35.9573-3.65,60.3532-10.9142,99.406,28.1386S177.3786,137.771,157.8509,157.2987Z" transform="translate(-0.556 0)"/><path class="cls-5" d="M157.8509,157.2987,16.43,15.8774C26.9456,5.3613,44.034,5.4051,83.0868,44.4579S168.367,146.7826,157.8509,157.2987Z" transform="translate(-0.556 0)"/></svg>