<svg id="Layer_1" data-name="Layer 1" xmlns="http://www.w3.org/2000/svg" viewBox="0 0 100 200" width="100" height="200"><defs><style>.cls-1{fill:#282758;}.cls-1,.cls-2,.cls-3,.cls-4,.cls-5{fill-rule:evenodd;}.cls-2{fill:#b91818;}.cls-3{fill:#991915;}.cls-4{fill:#ce1417;}.cls-5{fill:#ad1917;}</style></defs><title>blimp-1-0</title><polygon class="cls-1" points="4.526 180.917 4.526 162.856 50.141 158.502 95.472 162.856 95.472 180.917 49.42 172.21 4.526 180.917"/><polygon class="cls-1" points="49.997 158.529 50.141 158.502 95.472 162.856 95.472 180.917 49.997 172.32 49.997 158.529"/><path class="cls-2" d="M0,67.3433C0,12.1142,22.3865,0,49.9967,0,77.6131,0,100,12.1142,100,67.3433S77.6131,200,49.9967,200C22.3865,200,0,122.5723,0,67.3433Z" transform="translate(0 0)"/><path class="cls-3" d="M23.0789,67.3432C23.0789,12.1142,35.1309,0,49.9967,0,64.8688,0,76.9211,12.1142,76.9211,67.3432S64.8688,200,49.9967,200C35.1309,200,23.0789,122.5723,23.0789,67.3432Z" transform="translate(0 0)"/><path class="cls-4" d="M49.9967,200V0C77.6131,0,100,12.1142,100,67.3432S77.6131,200,49.9967,200Z" transform="translate(0 0)"/><path class="cls-5" d="M49.9967,200V0C64.8688,0,76.9211,12.1142,76.9211,67.3432S64.8688,200,49.9967,200Z" transform="translate(0 0)"/></svg>