<svg id="Layer_1" data-name="Layer 1" xmlns="http://www.w3.org/2000/svg" viewBox="0 0 174 174" width="174" height="174"><defs><style>.cls-1{fill:#e73235;}.cls-1,.cls-2,.cls-5,.cls-6,.cls-7,.cls-8{fill-rule:evenodd;}.cls-2{fill:#e20d1a;}.cls-3,.cls-5{fill:#293c4d;}.cls-4,.cls-6{fill:#1b2a3a;}.cls-7{fill:#283c4d;}.cls-8{fill:#192a3a;}</style></defs><title>plane-1-90</title><path class="cls-1" d="M59.4218,4.2446h0l.001,82.7529,28.9411,0C92.21,59.83,83.1275,26.2671,77.479,14.0421,72.0252,2.24,62.8242-5.0963,59.4218,4.2446Z"/><path class="cls-2" d="M59.4237,169.7554h0l-.0009-82.7579,28.9411,0c3.8463,27.1685-5.235,60.7309-10.8832,72.9557C72.0272,171.7608,62.8264,179.0963,59.4237,169.7554Z"/><path class="cls-1" d="M145.816,86.9985h9.88c1.3123-7.9765-1.7868-17.837-3.7164-21.4249-1.3668-2.5489-3.4257-4.3842-4.8807-4.0929-1.4573-.2913-3.5137,1.5489-4.8805,4.0928-1.9268,3.5878-5.0281,13.4483-3.7159,21.4248Z"/><path class="cls-2" d="M145.816,86.9985h9.88c1.3125,7.9817-1.7864,17.8372-3.7159,21.43-1.3668,2.5441-3.4232,4.3793-4.8806,4.0927-1.4573.2913-3.5138-1.5486-4.8806-4.0928-1.9269-3.5927-5.0284-13.4482-3.7164-21.43Z"/><rect class="cls-3" x="3.257" y="86.6815" width="7.1575" height="1.9128"/><rect class="cls-4" x="3.257" y="84.7637" width="7.1575" height="1.9178"/><path class="cls-5" d="M1.8929,88.4341l0,14.3562a1.4911,1.4911,0,0,0,1.5328,1.437h.0026A1.4909,1.4909,0,0,0,4.961,102.79l0-14.3561a1.4909,1.4909,0,0,0-1.5325-1.4373H3.4257A1.4912,1.4912,0,0,0,1.8929,88.4341Z"/><path class="cls-6" d="M1.8927,70.8883l0,14.3561a1.4942,1.4942,0,0,0,1.5327,1.437h.0027a1.4939,1.4939,0,0,0,1.5325-1.4369l0-14.3562a1.4907,1.4907,0,0,0-1.5325-1.437H3.4254A1.4909,1.4909,0,0,0,1.8927,70.8883Z"/><path class="cls-2" d="M10.4145,86.997h0L174,86.9988h0c0,3.8646-65.7763,8.2964-72.5915,8.9324-34.4521,3.2281-66.1162,1.9121-83.4965-1.9137C13.8976,93.1338,10.4145,90.8616,10.4145,86.997Z"/><path class="cls-1" d="M10.4145,86.997h0L174,86.9988h0c0-3.86-65.7765-8.2929-72.5917-8.9289-34.4522-3.2291-66.1163-1.9185-83.4965,1.9119C13.8974,80.8654,10.4145,83.1373,10.4145,86.997Z"/><path class="cls-5" d="M6.0734,81.7344C2.7176,81.7343,0,83.9481,0,86.6814c0,2.7286,2.7177,4.9424,6.0735,4.9425Z"/><path class="cls-6" d="M6.0735,86.6815H0c0-2.7333,2.7176-4.9471,6.0734-4.947Z"/><path class="cls-7" d="M62.9653,90.5079l21.6487,0a3.646,3.646,0,0,0,3.75-3.51h0a3.6494,3.6494,0,0,0-3.75-3.51l-21.6488,0a3.6491,3.6491,0,0,0-3.75,3.51h0A3.6461,3.6461,0,0,0,62.9653,90.5079Z"/><path class="cls-8" d="M62.9653,90.5079l21.6487,0a3.646,3.646,0,0,0,3.75-3.51l-29.1485,0A3.6461,3.6461,0,0,0,62.9653,90.5079Z"/><path class="cls-7" d="M135.658,88.77l10.9281,0a1.8389,1.8389,0,0,0,1.8907-1.7721h0a1.8381,1.8381,0,0,0-1.8908-1.7671l-10.928,0a1.8379,1.8379,0,0,0-1.89,1.7671h0A1.8387,1.8387,0,0,0,135.658,88.77Z"/><path class="cls-5" d="M135.658,88.77l10.9281,0a1.8389,1.8389,0,0,0,1.8907-1.7721l-14.7093,0A1.84,1.84,0,0,0,135.658,88.77Z"/></svg>