<svg id="Layer_1" data-name="Layer 1" xmlns="http://www.w3.org/2000/svg" viewBox="0 0 174 174" width="174" height="174"><defs><style>.cls-1{fill:#00419c;}.cls-1,.cls-2,.cls-5,.cls-6{fill-rule:evenodd;}.cls-2{fill:#4a72b2;}.cls-3,.cls-5{fill:#293c4d;}.cls-4,.cls-6{fill:#1b2a3a;}</style></defs><title>plane-2-45</title><path class="cls-1" d="M28.0153,172.921h0l72.4507-72.4524L75.1278,75.13c-27.1531,20.4192-48.5862,57.7553-54.344,73.4038C15.2255,163.6417,16.8583,178.12,28.0153,172.921Z" transform="translate(0 0)"/><path class="cls-2" d="M172.9209,28.0119h0L100.466,100.4686,75.1278,75.13c20.4189-27.154,57.7541-48.5876,73.4023-54.3455C163.6421,15.2216,178.12,16.8547,172.9209,28.0119Z" transform="translate(0 0)"/><path class="cls-1" d="M24.8281,24.8291,22.58,22.5813l-6.4027-6.4028C8.0453,22.0132,2.1256,33.36.6736,38.19c-1.0349,3.4283-.8391,6.8376.69,7.8564,1.0209,1.531,4.4324,1.72,7.8563.69,4.8282-1.4543,16.1764-7.372,22.0111-15.5045Z" transform="translate(0 0)"/><path class="cls-2" d="M24.8281,24.8291h0l-8.65-8.6506C22.0168,8.0413,33.3585,2.1259,38.1932.67c3.4241-1.0308,6.8313-.8371,7.8563.69C47.58,2.38,47.77,5.7918,46.7392,9.216c-1.4584,4.8324-7.3716,16.1765-15.5084,22.0159Z" transform="translate(0 0)"/><rect class="cls-3" x="145.8832" y="141.5176" width="2.3683" height="8.8621" transform="translate(-60.1262 146.7421) rotate(-45.0007)"/><rect class="cls-4" x="144.2033" y="143.1945" width="2.3745" height="8.8621" transform="translate(-61.8031 146.0476) rotate(-45.0007)"/><path class="cls-5" d="M152.0921,149.5791,164.661,137.01a1.8462,1.8462,0,0,0-.0839-2.6l-.0023-.0023a1.8459,1.8459,0,0,0-2.6-.0836l-12.5689,12.5692a1.8459,1.8459,0,0,0,.0834,2.6l.0023.0023A1.8462,1.8462,0,0,0,152.0921,149.5791Z" transform="translate(0 0)"/><path class="cls-6" d="M136.7306,164.941,149.3,152.3718a1.85,1.85,0,0,0-.0839-2.6l-.0023-.0023a1.85,1.85,0,0,0-2.6-.0836L134.0445,162.255a1.8457,1.8457,0,0,0,.0837,2.6l.0023.0024A1.8461,1.8461,0,0,0,136.7306,164.941Z" transform="translate(0 0)"/><path class="cls-2" d="M143.373,143.3766h0L.1528.1533h0C3.5363-3.23,65.0047,50.4778,71.5283,55.8878c32.99,27.3371,59.56,56.2118,71.4271,74.778C145.6964,134.9542,146.7565,139.993,143.373,143.3766Z" transform="translate(0 0)"/><path class="cls-1" d="M143.373,143.3766h0L.1528.1533h0c-3.3791,3.3792,50.3278,64.849,55.7378,71.3725,27.3364,32.9906,56.2063,59.5656,74.7765,71.4287C134.9553,145.6955,139.9939,146.7558,143.373,143.3766Z" transform="translate(0 0)"/><path class="cls-5" d="M142.5662,151.7848c2.938,2.9381,7.2555,3.3792,9.6486.9861,2.3889-2.3889,1.9477-6.7066-.99-9.6447Z" transform="translate(0 0)"/><path class="cls-6" d="M146.8974,147.4534l5.3174,5.3175c-2.3931,2.3931-6.7106,1.952-9.6486-.9861Z" transform="translate(0 0)"/><path class="cls-5" d="M100.4378,94.2937,81.4842,75.34a4.5143,4.5143,0,0,0-6.3564-.21h0a4.5185,4.5185,0,0,0,.21,6.3563L94.2913,100.44a4.5184,4.5184,0,0,0,6.3562.21h0A4.5145,4.5145,0,0,0,100.4378,94.2937Z" transform="translate(0 0)"/><path class="cls-6" d="M100.4378,94.2937,81.4842,75.34a4.5143,4.5143,0,0,0-6.3564-.21l25.52,25.52A4.5145,4.5145,0,0,0,100.4378,94.2937Z" transform="translate(0 0)"/><path class="cls-5" d="M35.273,32.1712l-9.5676-9.5678A2.2769,2.2769,0,0,0,22.4985,22.5h0a2.276,2.276,0,0,0,.1083,3.2026L32.1744,35.27a2.2755,2.2755,0,0,0,3.2022.108h0A2.2767,2.2767,0,0,0,35.273,32.1712Z" transform="translate(0 0)"/><path class="cls-6" d="M35.273,32.1712l-9.5676-9.5678A2.2769,2.2769,0,0,0,22.4985,22.5L35.3766,35.3779A2.2788,2.2788,0,0,0,35.273,32.1712Z" transform="translate(0 0)"/></svg>