<svg id="Layer_1" data-name="Layer 1" xmlns="http://www.w3.org/2000/svg" viewBox="0 0 174 174" width="174" height="174"><defs><style>.cls-1{fill:#e73235;}.cls-1,.cls-2,.cls-5,.cls-6,.cls-7,.cls-8{fill-rule:evenodd;}.cls-2{fill:#e20d1a;}.cls-3,.cls-5{fill:#293c4d;}.cls-4,.cls-6{fill:#1b2a3a;}.cls-7{fill:#283c4d;}.cls-8{fill:#192a3a;}</style></defs><title>plane-1-180</title><path class="cls-1" d="M114.5782,169.7554h0l-.001-82.7529-28.9411,0C81.79,114.17,90.8725,147.7329,96.521,159.9579,101.9748,171.76,111.1758,179.0963,114.5782,169.7554Z" transform="translate(0 0)"/><path class="cls-2" d="M114.5762,4.2446h0l.001,82.7579-28.9411,0C81.79,59.8337,90.871,26.2713,96.5192,14.0464,101.9728,2.2392,111.1736-5.0964,114.5762,4.2446Z" transform="translate(0 0)"/><path class="cls-1" d="M28.184,87.0015h-9.88c-1.3123,7.9765,1.7868,17.837,3.7164,21.425,1.3668,2.5489,3.4257,4.3841,4.8807,4.0928,1.4573.2913,3.5138-1.5488,4.88-4.0927,1.9268-3.5879,5.0281-13.4484,3.7159-21.4249Z" transform="translate(0 0)"/><path class="cls-2" d="M28.184,87.0015h-9.88C16.9911,79.02,20.09,69.1643,22.02,65.5716c1.3668-2.5441,3.4232-4.3793,4.88-4.0927,1.4574-.2913,3.5139,1.5487,4.8807,4.0928,1.9269,3.5927,5.0284,13.4482,3.7164,21.43Z" transform="translate(0 0)"/><rect class="cls-3" x="163.5855" y="85.4057" width="7.1575" height="1.9128"/><rect class="cls-4" x="163.5855" y="87.3185" width="7.1575" height="1.9178"/><path class="cls-5" d="M172.1071,85.5658l0-14.3561a1.4911,1.4911,0,0,0-1.5328-1.437h-.0026A1.4907,1.4907,0,0,0,169.039,71.21l0,14.3562a1.4909,1.4909,0,0,0,1.5325,1.4373h.0026A1.4912,1.4912,0,0,0,172.1071,85.5658Z" transform="translate(0 0)"/><path class="cls-6" d="M172.1073,103.1117l0-14.3562a1.4943,1.4943,0,0,0-1.5327-1.437h-.0027a1.494,1.494,0,0,0-1.5325,1.437l0,14.3562a1.4907,1.4907,0,0,0,1.5325,1.437h.0027A1.4909,1.4909,0,0,0,172.1073,103.1117Z" transform="translate(0 0)"/><path class="cls-2" d="M163.5855,87.003h0L0,87.0012H0c0-3.8645,65.7763-8.2964,72.5915-8.9324,34.4521-3.2282,66.1162-1.9121,83.4965,1.9137C160.1024,80.8662,163.5855,83.1384,163.5855,87.003Z" transform="translate(0 0)"/><path class="cls-1" d="M163.5855,87.003h0L0,87.0012H0c0,3.86,65.7765,8.2929,72.5917,8.9289,34.4522,3.2291,66.1163,1.9184,83.4965-1.9119C160.1026,93.1346,163.5855,90.8626,163.5855,87.003Z" transform="translate(0 0)"/><path class="cls-5" d="M167.9266,92.2656c3.3558,0,6.0734-2.2137,6.0734-4.947,0-2.7286-2.7177-4.9425-6.0735-4.9425Z" transform="translate(0 0)"/><path class="cls-6" d="M167.9265,87.3185H174c0,2.7333-2.7176,4.9471-6.0734,4.947Z" transform="translate(0 0)"/><path class="cls-7" d="M111.0347,83.4921l-21.6487,0a3.646,3.646,0,0,0-3.75,3.51h0a3.6494,3.6494,0,0,0,3.75,3.51l21.6488,0a3.6491,3.6491,0,0,0,3.75-3.51h0A3.6461,3.6461,0,0,0,111.0347,83.4921Z" transform="translate(0 0)"/><path class="cls-8" d="M111.0347,83.4921l-21.6487,0a3.646,3.646,0,0,0-3.75,3.51l29.1485,0A3.6461,3.6461,0,0,0,111.0347,83.4921Z" transform="translate(0 0)"/><path class="cls-7" d="M38.342,85.23H27.4139a1.8387,1.8387,0,0,0-1.8907,1.772h0a1.8383,1.8383,0,0,0,1.8908,1.7672H38.342a1.8379,1.8379,0,0,0,1.8905-1.7671h0A1.8387,1.8387,0,0,0,38.342,85.23Z" transform="translate(0 0)"/><path class="cls-5" d="M38.342,85.23H27.4139a1.8387,1.8387,0,0,0-1.8907,1.772l14.7093,0A1.84,1.84,0,0,0,38.342,85.23Z" transform="translate(0 0)"/></svg>