<svg id="Layer_1" data-name="Layer 1" xmlns="http://www.w3.org/2000/svg" viewBox="0 0 174 174" width="174" height="174"><defs><style>.cls-1{fill:#00419c;}.cls-1,.cls-2,.cls-5,.cls-6{fill-rule:evenodd;}.cls-2{fill:#4a72b2;}.cls-3,.cls-5{fill:#293c4d;}.cls-4,.cls-6{fill:#1b2a3a;}</style></defs><title>plane-2-0</title><path class="cls-1" d="M4.2447,114.5773H86.9976V85.6361C59.8294,81.79,26.2669,90.8718,14.042,96.52,2.24,101.9738-5.0963,111.1747,4.2447,114.5773Z" transform="translate(0)"/><path class="cls-2" d="M169.7554,114.5773H86.9976V85.6361c27.1684-3.846,60.7309,5.2357,72.9558,10.884C171.7607,101.9738,179.0964,111.1747,169.7554,114.5773Z" transform="translate(0)"/><path class="cls-1" d="M86.9976,28.184v-9.88C79.0211,16.9912,69.1606,20.09,65.5727,22.02,63.0238,23.3865,61.1886,25.4454,61.48,26.9c-.2913,1.4573,1.5489,3.5138,4.0928,4.8806,3.5879,1.9268,13.4484,5.0282,21.4249,3.7161Z" transform="translate(0)"/><path class="cls-2" d="M86.9976,28.184h0v-9.88c7.9817-1.3124,17.8372,1.7866,21.43,3.7161,2.5442,1.3668,4.3794,3.4233,4.0928,4.8807.2913,1.4573-1.5486,3.5138-4.0928,4.8806-3.5926,1.9268-13.4481,5.0282-21.43,3.7161Z" transform="translate(0)"/><rect class="cls-3" x="86.6821" y="163.5855" width="1.9128" height="7.1575"/><rect class="cls-4" x="84.7644" y="163.5855" width="1.9178" height="7.1575"/><path class="cls-5" d="M88.4348,172.1071H102.791a1.4911,1.4911,0,0,0,1.437-1.5327v-.0027a1.4909,1.4909,0,0,0-1.437-1.5325H88.4348a1.4909,1.4909,0,0,0-1.4372,1.5325v.0027A1.4911,1.4911,0,0,0,88.4348,172.1071Z" transform="translate(0)"/><path class="cls-6" d="M70.8889,172.1071H85.2451a1.4942,1.4942,0,0,0,1.437-1.5327v-.0027a1.494,1.494,0,0,0-1.437-1.5325H70.8889a1.4907,1.4907,0,0,0-1.437,1.5325v.0027A1.491,1.491,0,0,0,70.8889,172.1071Z" transform="translate(0)"/><path class="cls-2" d="M86.9976,163.5855h0V0h0c3.8645,0,8.2971,65.7764,8.9332,72.5916,3.2285,34.4521,1.9128,66.1163-1.9128,83.4965C93.1344,160.1025,90.8621,163.5855,86.9976,163.5855Z" transform="translate(0)"/><path class="cls-1" d="M86.9976,163.5855h0V0h0c-3.86,0-8.2922,65.7764-8.9281,72.5916-3.2287,34.4521-1.9177,66.1163,1.9128,83.4965C80.866,160.1025,83.1379,163.5855,86.9976,163.5855Z" transform="translate(0)"/><path class="cls-5" d="M81.735,167.9265c0,3.3558,2.2138,6.0735,4.9471,6.0735,2.7286,0,4.9424-2.7177,4.9424-6.0735Z" transform="translate(0)"/><path class="cls-6" d="M86.6821,167.9265V174c-2.7333,0-4.9471-2.7177-4.9471-6.0735Z" transform="translate(0)"/><path class="cls-5" d="M90.5079,111.0348V89.386a3.646,3.646,0,0,0-3.51-3.75h0a3.6494,3.6494,0,0,0-3.51,3.75v21.6488a3.6493,3.6493,0,0,0,3.51,3.75h0A3.646,3.646,0,0,0,90.5079,111.0348Z" transform="translate(0)"/><path class="cls-6" d="M90.5079,111.0348V89.386a3.646,3.646,0,0,0-3.51-3.75v29.1485A3.646,3.646,0,0,0,90.5079,111.0348Z" transform="translate(0)"/><path class="cls-5" d="M88.77,38.342V27.4139a1.8389,1.8389,0,0,0-1.7721-1.8907h0A1.8381,1.8381,0,0,0,85.23,27.4139V38.342a1.8379,1.8379,0,0,0,1.7672,1.8905h0A1.8387,1.8387,0,0,0,88.77,38.342Z" transform="translate(0)"/><path class="cls-6" d="M88.77,38.342V27.4139a1.8389,1.8389,0,0,0-1.7721-1.8907V40.2325A1.84,1.84,0,0,0,88.77,38.342Z" transform="translate(0)"/></svg>