<?xml version="1.0" encoding="utf-8"?>
<!-- Generator: Adobe Illustrator 22.0.0, SVG Export Plug-In . SVG Version: 6.00 Build 0)  -->
<svg version="1.1" id="Layer_1" xmlns="http://www.w3.org/2000/svg" xmlns:xlink="http://www.w3.org/1999/xlink" x="0px" y="0px"
	 viewBox="0 0 174 174" width="174" height="174" style="enable-background:new 0 0 174 174;" xml:space="preserve">
<style type="text/css">
	.st0{fill:#00419C;}
	.st1{fill:#4A72B2;}
	.st2{fill:#293C4D;}
	.st3{fill:#1B2A3A;}
</style>
<title>plane-2-90</title>
<path class="st0" d="M114.6,169.8L114.6,169.8V87H85.6c-3.8,27.2,5.2,60.7,10.9,73C102,171.8,111.2,179.1,114.6,169.8z"/>
<path class="st1" d="M114.6,4.2L114.6,4.2V87H85.6c-3.8-27.2,5.2-60.7,10.9-73C102,2.2,111.2-5.1,114.6,4.2z"/>
<path class="st0" d="M28.2,87h-9.9c-1.3,8,1.8,17.8,3.7,21.4c1.4,2.5,3.4,4.4,4.9,4.1c1.5,0.3,3.5-1.5,4.9-4.1
	c1.9-3.6,5-13.4,3.7-21.4L28.2,87z"/>
<path class="st1" d="M28.2,87h-9.9C17,79,20.1,69.2,22,65.6c1.4-2.5,3.4-4.4,4.9-4.1c1.5-0.3,3.5,1.5,4.9,4.1
	c1.9,3.6,5,13.4,3.7,21.4L28.2,87z"/>
<rect x="163.6" y="85.4" class="st2" width="7.2" height="1.9"/>
<rect x="163.6" y="87.3" class="st3" width="7.2" height="1.9"/>
<path class="st2" d="M172.1,85.6V71.2c0-0.8-0.7-1.5-1.5-1.4h0c-0.8,0-1.5,0.6-1.5,1.4v14.4c0,0.8,0.7,1.5,1.5,1.4h0
	C171.4,87,172.1,86.4,172.1,85.6z"/>
<path class="st3" d="M172.1,103.1V88.8c0-0.8-0.7-1.5-1.5-1.4h0c-0.8,0-1.5,0.6-1.5,1.4v14.4c0,0.8,0.7,1.5,1.5,1.4h0
	C171.4,104.6,172.1,103.9,172.1,103.1z"/>
<path class="st1" d="M163.6,87H0c0-3.9,65.8-8.3,72.6-8.9c34.5-3.2,66.1-1.9,83.5,1.9C160.1,80.9,163.6,83.1,163.6,87z"/>
<path class="st0" d="M163.6,87H0c0,3.9,65.8,8.3,72.6,8.9c34.5,3.2,66.1,1.9,83.5-1.9C160.1,93.1,163.6,90.9,163.6,87z"/>
<path class="st2" d="M167.9,92.3c3.4,0,6.1-2.2,6.1-4.9c0-2.7-2.7-4.9-6.1-4.9V92.3z"/>
<path class="st3" d="M167.9,87.3h6.1c0,2.7-2.7,4.9-6.1,4.9V87.3z"/>
<path class="st2" d="M111,83.5H89.4c-2-0.1-3.7,1.5-3.8,3.5l0,0c0.1,2,1.7,3.6,3.8,3.5H111c2,0.1,3.7-1.5,3.8-3.5l0,0
	C114.7,85,113,83.4,111,83.5z"/>
<path class="st3" d="M111,83.5H89.4c-2-0.1-3.7,1.5-3.8,3.5h29.1C114.7,85,113,83.4,111,83.5z"/>
<path class="st2" d="M38.3,85.2H27.4c-1,0-1.9,0.8-1.9,1.8l0,0c0,1,0.9,1.8,1.9,1.8h10.9c1,0,1.9-0.8,1.9-1.8l0,0
	C40.2,86,39.4,85.2,38.3,85.2z"/>
<path class="st3" d="M38.3,85.2H27.4c-1,0-1.9,0.8-1.9,1.8h14.7C40.2,86,39.4,85.2,38.3,85.2z"/>
</svg>
